<svg width="40" height="40" viewBox="0 0 40 40" fill="none" xmlns="http://www.w3.org/2000/svg">
<path d="M22.8833 34.6667C22.5903 35.1718 22.1697 35.5911 21.6637 35.8825C21.1577 36.174 20.584 36.3274 20 36.3274C19.416 36.3274 18.8423 36.174 18.3363 35.8825C17.8303 35.5911 17.4097 35.1718 17.1167 34.6667M30 13.6667C30 10.8383 28.9467 8.125 27.0717 6.125C25.1967 4.125 22.65 3 20 3C17.35 3 14.805 4.12333 12.9283 6.125C11.0533 8.125 10 10.8383 10 13.6667C10 26.1117 5 29.6667 5 29.6667H35C35 29.6667 30 26.1117 30 13.6667Z" stroke="#1F2A44" stroke-width="1.5" stroke-linecap="round" stroke-linejoin="round"/>
</svg>
