<?xml version="1.0" encoding="utf-8"?>
<!-- Generator: Adobe Illustrator 27.4.1, SVG Export Plug-In . SVG Version: 6.00 Build 0)  -->
<!DOCTYPE svg PUBLIC "-//W3C//DTD SVG 1.1//EN" "http://www.w3.org/Graphics/SVG/1.1/DTD/svg11.dtd" [
	<!ENTITY ns_extend "http://ns.adobe.com/Extensibility/1.0/">
	<!ENTITY ns_ai "http://ns.adobe.com/AdobeIllustrator/10.0/">
	<!ENTITY ns_graphs "http://ns.adobe.com/Graphs/1.0/">
	<!ENTITY ns_vars "http://ns.adobe.com/Variables/1.0/">
	<!ENTITY ns_imrep "http://ns.adobe.com/ImageReplacement/1.0/">
	<!ENTITY ns_sfw "http://ns.adobe.com/SaveForWeb/1.0/">
	<!ENTITY ns_custom "http://ns.adobe.com/GenericCustomNamespace/1.0/">
	<!ENTITY ns_adobe_xpath "http://ns.adobe.com/XPath/1.0/">
]>
<svg version="1.1" id="Layer_1" xmlns:x="&ns_extend;" xmlns:i="&ns_ai;" xmlns:graph="&ns_graphs;"
	 xmlns="http://www.w3.org/2000/svg" xmlns:xlink="http://www.w3.org/1999/xlink" x="0px" y="0px" width="145px" height="144px"
	 viewBox="0 0 145 144" style="enable-background:new 0 0 145 144;" xml:space="preserve">
<style type="text/css">
	.st0{display:none;}
	.st1{display:inline;fill:#F00028;}
	.st2{fill:#E95006;}
	.st3{display:inline;}
	.st4{fill:#FFAF00;}
	.st5{fill:#FFFFFF;}
</style>
<metadata>
	<sfw  xmlns="&ns_sfw;">
		<slices></slices>
		<sliceSourceBounds  bottomLeftOrigin="true" height="280" width="280" x="-37.6" y="-67.5"></sliceSourceBounds>
	</sfw>
</metadata>
<g class="st0">
	<path class="st1" d="M242.4,124c0,35,0,52.5-17.5,70s-35,17.5-70,17.5h-105c-35,0-52.5,0-70-17.5s-17.5-35-17.5-70V19
		c0-35,0-52.5,17.5-70s35-17.5,70-17.5h105c35,0,52.5,0,70,17.5s17.5,35,17.5,70V124z"/>
</g>
<circle class="st2" cx="72.4" cy="72" r="72"/>
<g class="st0">
	<g class="st3">
		<path class="st4" d="M117.6,71.1c0-16.9-13.7-30.6-30.6-30.6S56.4,54.2,56.4,71.1c0,4.1,0.8,7.9,2.2,11.5H86l-5.1,19.1H87
			C103.9,101.7,117.6,88,117.6,71.1z"/>
	</g>
	<g class="st3">
		<path class="st5" d="M45.5,86.4l11.8-43.9H39.6L27.9,86.4c-2.3,8.6,2.4,15.3,12.3,15.3h36.3l4.1-15.3H45.5z"/>
	</g>
</g>
<g>
	<path class="st5" d="M38.5,64.6c-2.3-1.9-5.6-2.9-9.9-2.9H17.7c-1,0-1.5,0.5-1.5,1.5v20.4c0,1,0.5,1.5,1.5,1.5h10.9
		c4.4,0,7.7-1,10-2.9c2.3-1.9,3.4-4.7,3.4-8.4V73C42,69.4,40.8,66.5,38.5,64.6z M32.5,73.6c0,1.5-0.3,2.6-0.9,3.1
		c-0.6,0.6-1.6,0.9-3.1,0.9h-3.1V69h3.1c1.4,0,2.5,0.3,3,0.9c0.6,0.6,0.9,1.6,0.9,3.2V73.6z"/>
	<path class="st5" d="M65.9,61.7H43.6c-1,0-1.5,0.5-1.5,1.5v4.5c0,1,0.5,1.5,1.5,1.5h6.5v14.5c0,1,0.5,1.5,1.5,1.5h6.4
		c1,0,1.5-0.5,1.5-1.5V69.1h6.5c1,0,1.5-0.5,1.5-1.5v-4.5C67.4,62.2,66.9,61.7,65.9,61.7z"/>
	<path class="st5" d="M99.5,61.7h-7.3c-0.7,0-1.3,0.3-1.8,0.9l-3.5,4.8c-1,1.4-1.5,2.5-1.5,3.3h-0.8l-0.1-0.3c0-0.6-0.6-1.6-1.7-3
		l-3.4-4.7c-0.4-0.6-1-0.9-1.8-0.9h-7.3c-1,0-1.5,0.5-1.5,1.5v20.4c0,1,0.5,1.5,1.5,1.5h6.2c1,0,1.5-0.5,1.5-1.5v-4.4
		c0-1.7-0.2-3.3-0.6-4.7h0.7l4.1,5.7c0.4,0.6,1,0.9,1.8,0.9h1.7c0.8,0,1.3-0.3,1.8-0.9l4.2-5.7h0.7l-0.2,0.6
		c-0.3,1.3-0.4,2.7-0.4,4.1v4.4c0,1,0.5,1.5,1.5,1.5h6.2c1,0,1.5-0.5,1.5-1.5V63.1C101,62.2,100.5,61.7,99.5,61.7z"/>
	<path class="st5" d="M124.4,72.3c-1.2-1.1-3.3-1.8-6.1-2.1l-1.9-0.2l-3-0.4c-0.9-0.1-1.3-0.3-1.3-0.6c0-0.3,0.3-0.5,0.8-0.6
		c0.5-0.1,1.6-0.1,3.1-0.1c2.2,0,4.2,0.3,6.2,0.8c1,0.3,1.6-0.1,1.8-1.1l0.6-4.4c0.1-1-0.3-1.5-1.2-1.7c-2.5-0.4-5.1-0.6-7.8-0.6
		c-8.5,0-12.8,2.7-12.8,8.2c0,2.2,0.6,3.9,1.9,4.9c1.3,1,3.5,1.7,6.6,1.9l1.7,0.1c1.5,0.1,2.5,0.3,3,0.4c0.5,0.1,0.7,0.3,0.7,0.6
		c0,0.3-0.3,0.5-0.9,0.7c-0.6,0.1-1.6,0.2-3.2,0.2c-2.7,0-5.3-0.3-7.9-0.9c-1-0.2-1.6,0.2-1.7,1.2l-0.5,4.5c-0.1,1,0.3,1.5,1.2,1.7
		c2.8,0.4,6,0.7,9.4,0.7c8.7,0,13-2.7,13-8.2C126.3,74.9,125.7,73.3,124.4,72.3z"/>
	<g>
		<path class="st5" d="M130.3,61c0-0.6-0.5-1-0.9-1h-1.2c-0.1,0-0.1,0.1-0.1,0.1v2.5c0,0.1,0.1,0.1,0.1,0.1h0.4
			c0.1,0,0.1-0.1,0.1-0.1v-0.8h0.4l0.3,0.9c0,0.1,0.1,0.1,0.1,0.1h0.4c0.1,0,0.2-0.1,0.1-0.2l-0.4-0.8C130,61.7,130.3,61.5,130.3,61
			z M129.3,61.3h-0.6v-0.6h0.6c0.2,0,0.3,0.1,0.3,0.3C129.6,61.1,129.5,61.3,129.3,61.3z"/>
		<path class="st5" d="M129,58.7c-1.5,0-2.8,1.2-2.8,2.8c0,1.5,1.2,2.8,2.8,2.8c1.5,0,2.8-1.2,2.8-2.8
			C131.8,59.9,130.6,58.7,129,58.7z M129,63.6c-1.2,0-2.2-1-2.2-2.2c0-1.2,1-2.2,2.2-2.2c1.2,0,2.2,1,2.2,2.2
			C131.2,62.6,130.2,63.6,129,63.6z"/>
	</g>
</g>
</svg>
