<svg width="40" height="40" viewBox="0 0 40 40" fill="none" xmlns="http://www.w3.org/2000/svg">
<path d="M20.1668 30.9167L20.0002 31.0833L19.8168 30.9167C11.9002 23.7333 6.66683 18.9833 6.66683 14.1667C6.66683 10.8333 9.16683 8.33333 12.5002 8.33333C15.0668 8.33333 17.5668 10 18.4502 12.2667H21.5502C22.4335 10 24.9335 8.33333 27.5002 8.33333C30.8335 8.33333 33.3335 10.8333 33.3335 14.1667C33.3335 18.9833 28.1002 23.7333 20.1668 30.9167ZM27.5002 5C24.6002 5 21.8168 6.35 20.0002 8.46667C18.1835 6.35 15.4002 5 12.5002 5C7.36683 5 3.3335 9.01667 3.3335 14.1667C3.3335 20.45 9.00016 25.6 17.5835 33.3833L20.0002 35.5833L22.4168 33.3833C31.0002 25.6 36.6668 20.45 36.6668 14.1667C36.6668 9.01667 32.6335 5 27.5002 5Z" fill="#1F2A44"/>
</svg>
