<svg width="40" height="40" viewBox="0 0 40 40" fill="none" xmlns="http://www.w3.org/2000/svg">
<path d="M34.1769 18.16V31.475C34.1769 32.2417 33.9196 32.8822 33.4052 33.3967C32.8908 33.9111 32.2508 34.1678 31.4852 34.1667H8.53353C7.76687 34.1667 7.12631 33.91 6.61187 33.3967C6.09742 32.8833 5.84076 32.2428 5.84187 31.475V18.0967C5.13853 17.5778 4.62409 16.8972 4.29853 16.055C3.97298 15.2128 3.96576 14.3144 4.27687 13.36L5.89853 8.01333C6.12076 7.33333 6.47909 6.8 6.97353 6.41333C7.46909 6.02666 8.08131 5.83333 8.8102 5.83333H31.1435C31.8713 5.83333 32.4813 6.01444 32.9735 6.37666C33.4646 6.73888 33.8246 7.26277 34.0535 7.94833L35.7385 13.3583C36.0508 14.3139 36.0441 15.22 35.7185 16.0767C35.393 16.9333 34.8785 17.6278 34.1752 18.16M23.6752 17.5C24.7452 17.5 25.5441 17.2 26.0719 16.6C26.5996 16.0011 26.8219 15.3822 26.7385 14.7433L25.6335 7.49999H20.8452V14.5C20.8452 15.3189 21.1252 16.0233 21.6852 16.6133C22.2452 17.2044 22.9096 17.5 23.6785 17.5M16.1785 17.5C17.0741 17.5 17.798 17.2044 18.3502 16.6133C18.9024 16.0222 19.1785 15.3178 19.1785 14.5V7.49999H14.3885L13.2785 14.8717C13.2108 15.3894 13.4369 15.9567 13.9569 16.5733C14.4769 17.19 15.2185 17.4989 16.1785 17.5ZM8.7602 17.5C9.49465 17.5 10.1191 17.25 10.6335 16.75C11.148 16.25 11.468 15.6261 11.5935 14.8783L12.6385 7.49999H8.81187C8.44853 7.49999 8.15965 7.58 7.9452 7.74C7.73076 7.9 7.57076 8.14055 7.4652 8.46166L5.92687 13.725C5.65353 14.6006 5.7702 15.4489 6.27687 16.27C6.78353 17.0911 7.61131 17.5011 8.7602 17.5ZM31.2602 17.5C32.258 17.5 33.0546 17.1111 33.6502 16.3333C34.2469 15.5556 34.3946 14.6861 34.0935 13.725L32.4719 8.39833C32.3652 8.07722 32.2046 7.84722 31.9902 7.70833C31.7758 7.56944 31.4874 7.49999 31.1252 7.49999H27.3819L28.4269 14.8783C28.5524 15.6261 28.8724 16.25 29.3869 16.75C29.9013 17.25 30.5258 17.5 31.2602 17.5ZM8.5352 32.5H31.4852C31.7841 32.5 32.0296 32.4039 32.2219 32.2117C32.4141 32.0194 32.5102 31.7739 32.5102 31.475V18.955C32.2858 19.0328 32.0724 19.0872 31.8702 19.1183C31.6691 19.1506 31.4658 19.1667 31.2602 19.1667C30.5102 19.1667 29.8502 19.0206 29.2802 18.7283C28.7102 18.4361 28.1691 17.9694 27.6569 17.3283C27.2213 17.8706 26.6841 18.3122 26.0452 18.6533C25.4063 18.9944 24.6296 19.1656 23.7152 19.1667C23.0508 19.1667 22.4185 19.0117 21.8185 18.7017C21.2185 18.3917 20.6158 17.9333 20.0102 17.3267C19.4524 17.9333 18.8341 18.3917 18.1552 18.7017C17.4774 19.0117 16.8308 19.1667 16.2152 19.1667C15.5163 19.1667 14.8352 19.0333 14.1719 18.7667C13.5085 18.5 12.9269 18.02 12.4269 17.3267C11.608 18.1456 10.8924 18.6567 10.2802 18.86C9.66909 19.0644 9.16242 19.1667 8.7602 19.1667C8.55465 19.1667 8.34798 19.1506 8.1402 19.1183C7.93131 19.0861 7.72131 19.0317 7.5102 18.955V31.4733C7.5102 31.7733 7.60631 32.0194 7.79853 32.2117C7.99076 32.4039 8.23631 32.5 8.5352 32.5Z" fill="#1F2A44"/>
</svg>
